<mxfile host="app.diagrams.net" modified="2024-04-16T07:22:11.383Z" agent="Mozilla/5.0 (Windows NT 10.0; Win64; x64) AppleWebKit/537.36 (KHTML, like Gecko) Chrome/123.0.0.0 Safari/537.36 Edg/123.0.0.0" version="24.2.5" etag="-nyK77I0km9kuEZZA_YU" type="github">
  <diagram name="第 1 页" id="0Igys1TkcTNNd_63uCOC">
    <mxGraphModel>
      <root>
        <mxCell id="0" />
        <mxCell id="1" parent="0" />
      </root>
    </mxGraphModel>
  </diagram>
</mxfile>
